# xmcd CD database file
#
# Track frame offsets:
#	150
#	17352
#	34932
#	48388
#	69095
#	87731
#	101393
#	117655
#	139930
#	155920
#	167157
#	182761
#
# Disc length: 2615 seconds
#
# Revision: 1
# Processed by: cddbd v1.5.2PL0 Copyright (c) Steve Scherf et al.
# Submitted via: CDex 1.51
#
DISCID=a30a350c
DTITLE=Rolando Boldrin - Vamos Tirar O Brasil Da Gaveta - Caipira 3
DYEAR=2004
DGENRE=Country
TTITLE0=Casinha de Paia
TTITLE1=Pomba do Mato
TTITLE2=Violeiro Triste
TTITLE3=Vaca Estrela E Boi Fubá
TTITLE4=Vide Vida Marvada
TTITLE5=Vou Buscar Boiada
TTITLE6=La Vai Minha Garça
TTITLE7=Êta Noís
TTITLE8=Folha Seca
TTITLE9=Caçada de Onça
TTITLE10=Deixei de Ser Carreiro
TTITLE11=Adeus Nhô Pai
EXTD=YEAR: 2004
EXTT0=
EXTT1=
EXTT2=
EXTT3=
EXTT4=
EXTT5=
EXTT6=
EXTT7=
EXTT8=
EXTT9=
EXTT10=
EXTT11=
PLAYORDER=
